<svg width="42" height="42" viewBox="0 0 42 42" fill="none" xmlns="http://www.w3.org/2000/svg">
<path d="M20.9998 35.7008C23.3194 35.7008 25.1998 33.8204 25.1998 31.5008C25.1998 29.1812 23.3194 27.3008 20.9998 27.3008C18.6802 27.3008 16.7998 29.1812 16.7998 31.5008C16.7998 33.8204 18.6802 35.7008 20.9998 35.7008Z" fill="#1177FE"/>
<path d="M2.1001 15.5396C4.46491 12.6347 7.37323 10.3082 10.6319 8.71462C13.8905 7.12104 17.4248 6.29688 21.0001 6.29688C24.5754 6.29688 28.1097 7.12104 31.3683 8.71462C34.627 10.3082 37.5353 12.6347 39.9001 15.5396L36.7501 18.4796C34.7794 15.9993 32.3558 14.0128 29.6403 12.6521C26.9248 11.2914 23.9795 10.5877 21.0001 10.5877C18.0207 10.5877 15.0754 11.2914 12.3599 12.6521C9.64438 14.0128 7.22078 15.9993 5.2501 18.4796L2.1001 15.5396ZM9.8701 22.2596C11.25 20.5541 12.9703 19.1834 14.9108 18.2431C16.8513 17.3028 18.9653 16.8156 21.1051 16.8156C23.2449 16.8156 25.3589 17.3028 27.2994 18.2431C29.2399 19.1834 30.9602 20.5541 32.3401 22.2596L29.4001 25.1996C28.4162 23.8997 27.1695 22.8506 25.752 22.1297C24.3345 21.4088 22.7823 21.0346 21.2101 21.0346C19.6379 21.0346 18.0857 21.4088 16.6682 22.1297C15.2507 22.8506 14.004 23.8997 13.0201 25.1996L9.8701 22.2596Z" fill="#1177FE"/>
</svg>
