<svg width="42" height="42" viewBox="0 0 42 42" fill="none" xmlns="http://www.w3.org/2000/svg">
<g clip-path="url(#clip0_9902_2760)">
<path fill-rule="evenodd" clip-rule="evenodd" d="M19.7751 3.58717C20.5755 3.46573 21.3896 3.46573 22.1901 3.58717C23.0913 3.72717 23.9576 4.07542 25.4101 4.65817L37.9926 9.73317C38.9621 10.1252 39.7426 10.4402 40.3201 10.7307C40.8748 11.0142 41.4296 11.3659 41.7148 11.9207C41.9091 12.2969 42.0053 12.7082 42.0053 13.1194V27.1194C42.0053 27.3515 41.9131 27.574 41.749 27.7381C41.5849 27.9022 41.3624 27.9944 41.1303 27.9944C40.8982 27.9944 40.6757 27.9022 40.5116 27.7381C40.3475 27.574 40.2553 27.3515 40.2553 27.1194V15.5344C39.6883 15.8179 38.9271 16.1242 37.9978 16.5004L36.7588 16.9992V27.1142C36.7588 30.4742 34.5888 32.8892 31.6488 34.4292C28.7088 35.9692 24.8238 36.7392 21.0088 36.7392C17.1938 36.7392 13.3263 35.9744 10.3863 34.4292C7.4288 32.8892 5.2588 30.4567 5.2588 27.1142V16.9992L4.01805 16.4987C3.04855 16.1067 2.26805 15.7917 1.69055 15.4994C1.1358 15.2177 0.582804 14.8659 0.295804 14.3094C0.105411 13.9385 0.00610352 13.5276 0.00610352 13.1107C0.00610352 12.6938 0.105411 12.2828 0.295804 11.9119C0.581054 11.3589 1.1358 11.0072 1.69055 10.7254C2.26455 10.4332 3.0468 10.1164 4.01805 9.72617L16.5831 4.65117C18.0303 4.06667 18.8931 3.71842 19.8031 3.57842L19.7751 3.58717ZM21.9101 5.31442C21.2896 5.21845 20.658 5.21845 20.0376 5.31442C19.3603 5.41942 18.6936 5.68192 17.0976 6.32417L4.67255 11.3292C3.6523 11.7404 2.94355 12.0292 2.45005 12.2812C1.92505 12.5489 1.8288 12.6889 1.81655 12.7117C1.75299 12.8354 1.71984 12.9725 1.71984 13.1115C1.71984 13.2506 1.75299 13.3877 1.81655 13.5114C1.8288 13.5342 1.92505 13.6759 2.45005 13.9419C2.94705 14.1957 3.6558 14.4844 4.67255 14.8939L17.0976 19.8989C18.6848 20.5394 19.3551 20.8037 20.0376 20.9087C20.658 21.0046 21.2896 21.0046 21.9101 20.9087C22.5873 20.8037 23.2541 20.5412 24.8501 19.9007L37.2751 14.8957C38.2953 14.4844 39.0058 14.1957 39.4976 13.9437C40.0226 13.6759 40.1188 13.5359 40.1311 13.5132C40.1946 13.3895 40.2278 13.2524 40.2278 13.1133C40.2278 12.9742 40.1946 12.8371 40.1311 12.7134C40.1188 12.6907 40.0226 12.5507 39.4976 12.2829C39.0006 12.0292 38.2901 11.7422 37.2751 11.3309L24.8501 6.32592C23.2628 5.68542 22.5926 5.42292 21.9101 5.31792V5.31442ZM25.3926 21.5719L34.9826 17.7044V27.1194C34.9826 29.5869 33.4286 31.5294 30.8001 32.8944C28.1751 34.2664 24.6051 34.9944 20.9826 34.9944C17.3601 34.9944 13.7901 34.2612 11.1651 32.8944C8.54005 31.5259 6.98255 29.5869 6.98255 27.1194V17.7219L16.5551 21.5894C18.0023 22.1739 18.8651 22.5222 19.7751 22.6622C20.5731 22.7847 21.3868 22.7847 22.1901 22.6622C23.0913 22.5222 23.9576 22.1739 25.4101 21.5912L25.3926 21.5719Z" fill="white"/>
</g>
<defs>
<clipPath id="clip0_9902_2760">
<rect width="42" height="42" fill="white"/>
</clipPath>
</defs>
</svg>
