<svg width="36" height="36" viewBox="0 0 36 36" fill="none" xmlns="http://www.w3.org/2000/svg">
<circle cx="18" cy="18" r="18" fill="#1177FE"/>
<g clip-path="url(#clip0_9951_4316)">
<path d="M18 8.163C21.204 8.163 21.584 8.175 22.85 8.233C26.102 8.381 27.621 9.924 27.769 13.152C27.827 14.417 27.838 14.797 27.838 18.001C27.838 21.206 27.826 21.585 27.769 22.85C27.62 26.075 26.105 27.621 22.85 27.769C21.584 27.827 21.206 27.839 18 27.839C14.796 27.839 14.416 27.827 13.151 27.769C9.891 27.62 8.38 26.07 8.232 22.849C8.174 21.584 8.162 21.205 8.162 18C8.162 14.796 8.175 14.417 8.232 13.151C8.381 9.924 9.896 8.38 13.151 8.232C14.417 8.175 14.796 8.163 18 8.163ZM18 6C14.741 6 14.333 6.014 13.053 6.072C8.695 6.272 6.273 8.69 6.073 13.052C6.014 14.333 6 14.741 6 18C6 21.259 6.014 21.668 6.072 22.948C6.272 27.306 8.69 29.728 13.052 29.928C14.333 29.986 14.741 30 18 30C21.259 30 21.668 29.986 22.948 29.928C27.302 29.728 29.73 27.31 29.927 22.948C29.986 21.668 30 21.259 30 18C30 14.741 29.986 14.333 29.928 13.053C29.732 8.699 27.311 6.273 22.949 6.073C21.668 6.014 21.259 6 18 6ZM18 11.838C14.597 11.838 11.838 14.597 11.838 18C11.838 21.403 14.597 24.163 18 24.163C21.403 24.163 24.162 21.404 24.162 18C24.162 14.597 21.403 11.838 18 11.838ZM18 22C15.791 22 14 20.21 14 18C14 15.791 15.791 14 18 14C20.209 14 22 15.791 22 18C22 20.21 20.209 22 18 22ZM24.406 10.155C23.61 10.155 22.965 10.8 22.965 11.595C22.965 12.39 23.61 13.035 24.406 13.035C25.201 13.035 25.845 12.39 25.845 11.595C25.845 10.8 25.201 10.155 24.406 10.155Z" fill="white"/>
</g>
<defs>
<clipPath id="clip0_9951_4316">
<rect width="24" height="24" fill="white" transform="translate(6 6)"/>
</clipPath>
</defs>
</svg>
